<svg
  width="180"
  height="180"
  viewBox="0 0 180 180"
  fill="none"
  xmlns="http://www.w3.org/2000/svg"
>
  <path
    d="M0 33.75C0 15.1104 15.1104 0 33.75 0H146.25C164.89 0 180 15.1104 180 33.75V146.25C180 164.89 164.89 180 146.25 180H33.75C15.1104 180 0 164.89 0 146.25V33.75Z"
    fill="#0086C9"
  />
  <path
    d="M105.167 46.5135C95.1619 44.4955 84.8631 44.4955 74.8581 46.5135C63.3218 48.8404 55.0125 59.1115 55.0125 71.0447V123.146C55.0125 132.289 64.796 137.98 72.5736 133.36L86.7378 124.947C88.7604 123.746 91.2646 123.746 93.2872 124.947L107.451 133.36C115.229 137.98 125.012 132.289 125.012 123.146V71.0447C125.012 59.1115 116.703 48.8404 105.167 46.5135Z"
    fill="white"
  />
</svg>
