<svg
  width="32"
  height="32"
  viewBox="0 0 32 32"
  fill="none"
  xmlns="http://www.w3.org/2000/svg"
>
  <path
    d="M0 6C0 2.68629 2.68629 0 6 0H26C29.3137 0 32 2.68629 32 6V26C32 29.3137 29.3137 32 26 32H6C2.68629 32 0 29.3137 0 26V6Z"
    fill="black"
  />
  <path
    d="M18.6963 8.26907C16.9177 7.91031 15.0868 7.91031 13.3081 8.26907C11.2572 8.68275 9.78 10.5087 9.78 12.6302V21.8926C9.78 23.5181 11.5193 24.5298 12.902 23.7085L15.4201 22.2129C15.7796 21.9993 16.2248 21.9993 16.5844 22.2129L19.1025 23.7085C20.4852 24.5298 22.2244 23.5181 22.2244 21.8926V12.6302C22.2244 10.5087 20.7472 8.68275 18.6963 8.26907Z"
    fill="white"
  />
</svg>
